# xmcd
#
# Track frame offsets:
#	182
#	12900
#	31792
#	50615
#	65457
#	90675
#	131792
#	150317
#	175505
#	197840
#	213292
#	248610
#
# Disc length: 3662 seconds
#
# Revision: 0
# Processed by: cddbd v1.5.2PL0 Copyright (c) Steve Scherf et al.
# Submitted via: audiograbber 1.83.01
#
DISCID=940e4c0c
DTITLE=MS® - Jugo De Hits 9.8
DYEAR=1995
DGENRE=Pop
TTITLE0=James Brown - (I Got You) I Feel Good
TTITLE1=Billy Preston - Outa Space
TTITLE2=Barry White - Love's Theme
TTITLE3=Rick Dees And His Cast Of Idiots - Disco Duck
TTITLE4=Alicia Bridges - I Love The Nightlife
TTITLE5=Cameo - Find My Way
TTITLE6=Kurtis Blow - The Breaks
TTITLE7=Peaches and Herb - Shake Your Groove Thing
TTITLE8=Kool and The Gang - Get Down It
TTITLE9=Edwin Starr - H.A.P.P.Y. Radio
TTITLE10=Lipp's, Inc. - Funkytown
TTITLE11=Michael Sembello - Maniac
EXTD=MS®
EXTT0=MS®
EXTT1=
EXTT2=
EXTT3=
EXTT4=
EXTT5=
EXTT6=
EXTT7=
EXTT8=
EXTT9=
EXTT10=
EXTT11=
PLAYORDER=
